<?xml version="1.0" encoding="UTF-8"?>
<svg id="Layer_2" xmlns="http://www.w3.org/2000/svg" viewBox="0 0 678.34 137.82">
  <defs>
    <style>
      .cls-1 {
        fill: #fff;
      }

      .cls-2 {
        fill: #e31e2e;
      }
    </style>
  </defs>
  <g id="Layer_1-2" data-name="Layer_1">
    <g>
      <path class="cls-1" d="M566.95,82.35c-.91.72-1.9,1.34-2.98,1.85-1.08.52-2.26.91-3.54,1.17-1.28.26-2.72.4-4.32.4-2.41,0-4.65-.44-6.71-1.31-2.06-.87-3.85-2.07-5.35-3.59-1.5-1.52-2.67-3.31-3.52-5.37-.84-2.06-1.27-4.27-1.27-6.62v-.09c0-2.35.42-4.54,1.27-6.59.84-2.05,2.02-3.85,3.52-5.4,1.5-1.55,3.3-2.77,5.4-3.66,2.1-.89,4.41-1.34,6.94-1.34,1.53,0,2.93.12,4.2.38,1.27.25,2.42.6,3.45,1.03,1.03.44,1.99.97,2.86,1.6.87.63,1.69,1.31,2.44,2.06l-4.6,5.3c-1.28-1.16-2.59-2.07-3.92-2.72-1.33-.66-2.82-.99-4.48-.99-1.38,0-2.65.27-3.83.8-1.17.53-2.18,1.27-3.03,2.21s-1.5,2.03-1.97,3.26c-.47,1.24-.7,2.56-.7,3.96v.09c0,1.41.24,2.74.7,3.99s1.12,2.35,1.95,3.28c.83.94,1.83,1.68,3,2.23,1.17.55,2.46.82,3.87.82,1.88,0,3.46-.34,4.76-1.03,1.3-.69,2.59-1.63,3.87-2.82l4.6,4.65c-.85.91-1.72,1.72-2.63,2.44"/>
      <path class="cls-1" d="M608.9,75.38c-.87,2.05-2.09,3.85-3.64,5.4-1.55,1.55-3.39,2.77-5.54,3.66-2.14.89-4.48,1.34-7.02,1.34s-4.86-.45-6.99-1.34c-2.13-.89-3.96-2.1-5.52-3.61-1.55-1.52-2.75-3.3-3.61-5.35-.86-2.05-1.29-4.25-1.29-6.59v-.09c0-2.35.44-4.54,1.31-6.59.87-2.05,2.09-3.85,3.64-5.4,1.55-1.55,3.39-2.77,5.54-3.66,2.14-.89,4.48-1.34,7.01-1.34s4.86.44,6.99,1.34c2.13.89,3.96,2.1,5.51,3.61,1.55,1.52,2.75,3.3,3.61,5.35.86,2.05,1.29,4.25,1.29,6.59v.09c0,2.35-.44,4.54-1.31,6.59M602.66,68.79c0-1.41-.24-2.74-.73-3.99-.49-1.25-1.17-2.35-2.07-3.29-.89-.94-1.95-1.68-3.17-2.23-1.22-.55-2.55-.82-3.99-.82s-2.81.27-4.01.8c-1.2.53-2.24,1.27-3.1,2.2-.86.94-1.53,2.03-2.02,3.26-.48,1.24-.73,2.56-.73,3.96v.09c0,1.41.24,2.74.73,3.99.49,1.25,1.17,2.35,2.07,3.29.89.94,1.94,1.68,3.15,2.23,1.2.55,2.54.82,4.01.82s2.77-.27,3.99-.8,2.26-1.27,3.12-2.21c.86-.94,1.53-2.03,2.02-3.26.48-1.23.73-2.56.73-3.96v-.09Z"/>
      <path class="cls-1" d="M637.99,85.21l-7.04-10.51h-5.68v10.51h-7.23v-32.85h15.01c3.91,0,6.95.96,9.13,2.86,2.17,1.91,3.26,4.57,3.26,7.98v.09c0,2.66-.65,4.83-1.95,6.5-1.3,1.67-3,2.9-5.09,3.68l8.02,11.73h-8.45ZM638.13,63.58c0-1.56-.5-2.74-1.5-3.52-1-.78-2.39-1.17-4.18-1.17h-7.18v9.43h7.32c1.78,0,3.15-.42,4.11-1.27.95-.84,1.43-1.97,1.43-3.38v-.09Z"/>
      <polygon class="cls-1" points="653.38 85.21 653.38 52.36 678.11 52.36 678.11 58.79 660.51 58.79 660.51 65.46 676 65.46 676 71.88 660.51 71.88 660.51 78.78 678.34 78.78 678.34 85.21 653.38 85.21"/>
      <polygon class="cls-2" points="70.6 7.42 70.6 108.02 100.19 108.02 100.19 29.78 70.6 7.42"/>
      <polygon class="cls-2" points="58.84 16.31 58.84 108.02 64.88 108.02 64.88 11.74 58.84 16.31"/>
      <polygon class="cls-2" points="47.07 108.02 53.12 108.02 53.12 20.63 47.07 25.21 47.07 108.02"/>
      <polygon class="cls-2" points="35.3 108.02 41.35 108.02 41.35 29.53 35.3 34.1 35.3 108.02"/>
      <polygon class="cls-2" points="105.9 52.52 105.9 108.02 135.49 108.02 135.49 74.88 105.9 52.52"/>
      <polygon class="cls-2" points="23.53 61.29 23.53 108.02 29.58 108.02 29.58 56.72 23.53 61.29"/>
      <polygon class="cls-2" points="11.77 108.02 17.82 108.02 17.82 65.62 11.77 70.19 11.77 108.02"/>
      <polygon class="cls-2" points="0 108.02 6.05 108.02 6.05 74.51 0 79.08 0 108.02"/>
      <path class="cls-1" d="M211.91,63.43c-8.9,0-14.34-4.97-14.34-14.72v-18.94h7.29v18.75c0,5.4,2.7,8.19,7.15,8.19s7.15-2.7,7.15-7.95v-18.98h7.29v18.7c0,10.04-5.63,14.96-14.54,14.96"/>
      <path class="cls-1" d="M248.39,63.38c-5.02,0-10.08-1.75-14.06-5.3l4.31-5.16c2.98,2.46,6.11,4.02,9.9,4.02,2.98,0,4.78-1.18,4.78-3.12v-.09c0-1.85-1.14-2.79-6.68-4.21-6.68-1.71-10.98-3.69-10.98-10.27v-.09c0-6.01,4.83-9.99,11.6-9.99,4.83,0,8.95,1.51,12.31,4.21l-3.79,5.49c-2.93-2.04-5.82-3.27-8.62-3.27s-4.26,1.28-4.26,2.89v.09c0,2.18,1.42,3.02,7.15,4.49,6.72,1.75,10.51,4.17,10.51,9.94v.09c0,6.58-5.02,10.27-12.17,10.27"/>
      <polygon class="cls-1" points="291.18 62.9 291.18 49.6 277.73 49.6 277.73 62.9 270.44 62.9 270.44 29.76 277.73 29.76 277.73 42.88 291.18 42.88 291.18 29.76 298.47 29.76 298.47 62.9 291.18 62.9"/>
      <polygon class="cls-1" points="417.65 62.9 402.05 42.18 402.05 62.9 394.85 62.9 394.85 29.76 401.57 29.76 417.1 50.85 417.1 29.76 424.29 29.76 424.29 62.9 417.65 62.9"/>
      <polygon class="cls-1" points="275.07 108.02 264.8 93.91 260.97 97.89 260.97 108.02 253.67 108.02 253.67 74.88 260.97 74.88 260.97 89.36 274.41 74.88 283.22 74.88 269.72 88.94 283.83 108.02 275.07 108.02"/>
      <polygon class="cls-1" points="292.02 108.02 292.02 74.88 316.8 74.88 316.8 81.36 299.26 81.36 299.26 88.09 314.66 88.09 314.66 94.57 299.26 94.57 299.26 101.53 317.03 101.53 317.03 108.02 292.02 108.02"/>
      <rect class="cls-1" x="362.47" y="74.88" width="7.29" height="33.14"/>
      <polygon class="cls-1" points="380.51 107.97 380.51 74.83 405.29 74.83 405.29 81.31 387.76 81.31 387.76 88.04 403.16 88.04 403.16 94.52 387.76 94.52 387.76 101.48 405.53 101.48 405.53 107.97 380.51 107.97"/>
      <polygon class="cls-1" points="416.42 108.02 416.42 74.88 423.71 74.88 423.71 101.39 440.23 101.39 440.23 108.02 416.42 108.02"/>
      <path class="cls-1" d="M471.91,91.45c0-5.87-4.02-9.99-9.99-9.99h-5.63v19.98h5.63c5.97,0,9.99-4.03,9.99-9.9v-.09ZM461.92,108.02h-12.92v-33.14h12.92c10.42,0,17.61,7.15,17.61,16.48v.09c0,9.33-7.2,16.57-17.61,16.57"/>
      <path class="cls-1" d="M175.92,56.71c-6.06.11-10.12-4.56-10.22-10.24v-.1c-.1-5.68,3.89-10.39,9.76-10.49,3.3-.06,6.21,1.39,8.15,3.67l4.62-5.52c-3.17-3.09-7.63-4.96-12.8-4.87-10.22.18-17.52,8.02-17.36,17.44v.09c.16,9.42,7.64,16.91,17.86,16.73,5.37-.09,9.91-2.52,13.01-6.05l-4.91-4.79c-1.82,2.44-4.72,4.06-8.12,4.12"/>
      <polygon class="cls-1" points="335.54 29.76 343.35 29.76 343.35 62.9 336.4 62.9 336.4 41.24 327 55.42 326.79 55.42 317.39 41.24 317.39 62.9 310.44 62.9 310.44 29.76 318.25 29.76 326.89 43.67 335.54 29.76"/>
      <path class="cls-1" d="M364.6,49.03l4.4-10.75,4.4,10.75h-8.81ZM365.64,29.76l-14.1,33.14h7.43l3.03-7.43h14.01l3.03,7.43h7.62l-14.1-33.14h-6.92Z"/>
      <path class="cls-1" d="M223.43,94.15l4.4-10.75,4.4,10.75h-8.8ZM224.46,74.88l-14.1,33.14h7.43l3.03-7.43h14.01l3.03,7.43h7.62l-14.1-33.14h-6.92Z"/>
      <polygon class="cls-1" points="334.58 81.51 334.58 88.56 350.17 88.56 350.17 95.19 334.58 95.19 334.58 108.02 327.29 108.02 327.29 74.88 352.54 74.88 352.54 81.51 334.58 81.51"/>
      <polygon class="cls-1" points="202.55 74.88 194.87 97.97 187.19 74.88 180.15 74.88 172.47 97.97 164.79 74.88 156.99 74.88 168.93 108.02 176.18 108.02 183.67 85.27 191.16 108.02 198.41 108.02 210.35 74.88 202.55 74.88"/>
      <path class="cls-1" d="M458.54,40.66c-.89-.82-1.93-1.94-2.12-3.08-.19-1.18.55-2.55,2.15-2.66,1.68-.11,2.57,1.1,2.57,2.44,0,1.53-1.56,2.73-2.61,3.3M462.64,54.43c-1.54,2-3.47,3.09-5.15,3.1-2.39,0-4.48-2-4.56-4.36-.05-1.47,1.07-3.67,4.37-5.17l5.34,6.44ZM470.82,54.73l3.83-4.27-4.6-4.92-3.39,4-4.12-4.9c2.73-1.6,4.44-4.56,4.34-7.61-.16-4.49-3.84-7.87-8.57-7.87-2.27,0-4.36.87-5.87,2.44-1.5,1.56-2.29,3.65-2.21,5.88.09,2.5,1.76,4.6,2.99,6.05-3.93,1.63-6.79,5.73-6.65,9.72.2,5.67,5.09,10.28,10.92,10.28,3.26,0,6.88-1.77,9.08-4.22l2.96,3.62h8.54l-7.25-8.19Z"/>
      <rect class="cls-1" x="508.74" y=".27" width="1.14" height="137.29"/>
      <path class="cls-1" d="M509.88,137.55h-1.14V.27h1.14v137.29ZM510.15,0h-1.68v137.82h1.68V0Z"/>
    </g>
  </g>
</svg>